<?xml version="1.0" encoding="UTF-8" standalone="no"?>
<!-- Created with Inkscape (http://www.inkscape.org/) -->

<svg
   width="3.3866668cm"
   height="2.9159846cm"
   viewBox="0 0 33.866668 29.159846"
   version="1.1"
   id="svg1"
   xml:space="preserve"
   sodipodi:docname="logoNegro.svg"
   inkscape:version="1.3.2 (091e20ef0f, 2023-11-25, custom)"
   xmlns:inkscape="http://www.inkscape.org/namespaces/inkscape"
   xmlns:sodipodi="http://sodipodi.sourceforge.net/DTD/sodipodi-0.dtd"
   xmlns="http://www.w3.org/2000/svg"
   xmlns:svg="http://www.w3.org/2000/svg"><sodipodi:namedview
     id="namedview1"
     pagecolor="#505050"
     bordercolor="#eeeeee"
     borderopacity="1"
     inkscape:showpageshadow="0"
     inkscape:pageopacity="0"
     inkscape:pagecheckerboard="0"
     inkscape:deskcolor="#505050"
     inkscape:document-units="cm"
     inkscape:zoom="3.1093749"
     inkscape:cx="64.000002"
     inkscape:cy="55.155781"
     inkscape:window-width="1366"
     inkscape:window-height="740"
     inkscape:window-x="1366"
     inkscape:window-y="0"
     inkscape:window-maximized="1"
     inkscape:current-layer="svg1" /><defs
     id="defs1" /><g
     id="layer1"
     transform="translate(-15.240702,52.419746)"
     style="fill:#1a1a1a;fill-opacity:1"><g
       id="g1192"
       transform="matrix(0.27436894,0,0,0.27436894,-7.0264265,-83.90687)"
       style="fill:#1a1a1a;fill-opacity:1"><g
         id="g1188"
         transform="translate(-0.72801748,-4.9574385)"
         style="fill:#1a1a1a;fill-opacity:1"><path
           style="fill:#1a1a1a;fill-opacity:1;stroke:none;stroke-width:0.264583px;stroke-linecap:butt;stroke-linejoin:miter;stroke-opacity:1"
           d="m 92.527443,161.05581 c -3.917847,0 -10.865689,1.88755 -10.636268,11.2545 0.199314,8.13774 3.243918,9.73528 3.883714,13.98941 3.454605,22.97038 25.573881,30.45145 25.573881,30.45145 0,0 14.43224,13.61679 18.06519,7.80433 2.80795,-4.4925 7.38144,-11.16054 9.03727,-17.51952 3.04462,-11.6924 0.22477,-32.88897 1.20435,-36.22689 1.8798,-6.40539 2.44797,-5.26329 2.03961,-7.97742 -0.44413,-2.95182 -2.10128,-5.60079 -4.67303,-7.63921 -2.57175,-2.03842 -6.32067,-1.27157 -9.65249,-2.7008 -4.30796,-1.84796 -6.53371,-1.91095 -7.68516,0.66452 -0.85896,1.92126 -0.96788,4.76148 -2.72659,6.18422 -1.33349,1.07875 -3.09777,2.1 -3.50656,3.76577 -0.25054,1.02095 0.12167,2.27002 0.83657,3.04075 0.36911,0.39793 0.99042,0.53967 1.53311,0.54852 1.30433,0.0213 2.66811,-1.96107 3.72581,-1.19751 0.30008,0.21663 -0.15231,0.77778 0.0103,1.11026 0.42373,0.86649 1.82276,0.94187 2.26737,1.79783 0.14285,0.27501 -0.13819,0.68478 0.0537,0.92815 0.7881,0.99968 2.3956,1.28451 3.65576,1.10435 0.42339,-0.0605 0.94998,-1.10933 1.07509,-0.70034 0.56227,1.83805 0.86067,1.2946 0.17412,3.86925 -0.80519,3.28381 -2.40748,7.89467 -5.06622,12.87384 -1.02316,1.91612 -3.49226,7.55426 -2.96505,5.41059 1.78382,-7.25307 -9.49479,-11.86174 -9.49479,-11.86174 0,0 -1.49831,-18.07325 -16.729651,-18.97431 h 1.2e-5 z"
           id="path1184" /><path
           style="fill:#1a1a1a;fill-opacity:1;stroke:none;stroke-width:0.264583px;stroke-linecap:butt;stroke-linejoin:miter;stroke-opacity:1"
           d="m 194.6786,161.05581 c 3.91784,0 10.86568,1.88755 10.63626,11.2545 -0.19931,8.13774 -3.24392,9.73528 -3.88371,13.98941 -3.45461,22.97038 -25.57389,30.45145 -25.57389,30.45145 0,0 -14.43225,13.61679 -18.0652,7.80433 -2.80795,-4.4925 -7.38144,-11.16054 -9.03727,-17.51952 -3.04463,-11.6924 -0.22477,-32.88897 -1.20435,-36.22689 -1.87981,-6.40539 -2.44798,-5.26329 -2.03962,-7.97742 0.44413,-2.95182 2.10129,-5.60079 4.67304,-7.63921 2.57175,-2.03842 6.32067,-1.27157 9.65249,-2.7008 4.30796,-1.84796 6.53371,-1.91095 7.68516,0.66452 0.85896,1.92126 0.96788,4.76148 2.7266,6.18422 1.33348,1.07875 3.09777,2.1 3.50655,3.76577 0.25055,1.02095 -0.12166,2.27002 -0.83656,3.04075 -0.36911,0.39793 -0.99043,0.53967 -1.53311,0.54852 -1.30434,0.0213 -2.66812,-1.96107 -3.72581,-1.19751 -0.30008,0.21663 0.1523,0.77778 -0.0103,1.11026 -0.42374,0.86649 -1.82277,0.94187 -2.26738,1.79783 -0.14285,0.27501 0.13819,0.68478 -0.0537,0.92815 -0.7881,0.99968 -2.3956,1.28451 -3.65576,1.10435 -0.42339,-0.0605 -0.94998,-1.10933 -1.07509,-0.70034 -0.56227,1.83805 -0.86067,1.2946 -0.17412,3.86925 0.80519,3.28381 2.40748,7.89467 5.06623,12.87384 1.02315,1.91612 3.49225,7.55426 2.96504,5.41059 -1.78382,-7.25307 9.4948,-11.86174 9.4948,-11.86174 0,0 1.49831,-18.07325 16.72966,-18.97431 h -1e-5 z"
           id="path1186" /></g><path
         id="path1190"
         style="opacity:1;fill:#1a1a1a;fill-opacity:1;stroke:none;stroke-width:0"
         d="M 540,433.74609 A 106.25362,106.25362 0 0 0 433.74609,540 106.25362,106.25362 0 0 0 540,646.25391 106.25362,106.25362 0 0 0 646.25391,540 106.25362,106.25362 0 0 0 540,433.74609 Z m 0,26.50196 A 79.752314,79.752314 0 0 1 619.75195,540 79.752314,79.752314 0 0 1 540,619.75195 79.752314,79.752314 0 0 1 460.24805,540 79.752314,79.752314 0 0 1 540,460.24805 Z"
         transform="scale(0.26458333)" /></g></g></svg>
