<?xml version="1.0" encoding="UTF-8" standalone="no"?>
<!-- Created with Inkscape (http://www.inkscape.org/) -->

<svg
   width="79.967278mm"
   height="79.977577mm"
   viewBox="0 0 302.23854 302.27746"
   version="1.1"
   id="svg1"
   xml:space="preserve"
   sodipodi:docname="face.svg"
   inkscape:version="1.3.2 (091e20ef0f, 2023-11-25, custom)"
   xmlns:inkscape="http://www.inkscape.org/namespaces/inkscape"
   xmlns:sodipodi="http://sodipodi.sourceforge.net/DTD/sodipodi-0.dtd"
   xmlns="http://www.w3.org/2000/svg"
   xmlns:svg="http://www.w3.org/2000/svg"><sodipodi:namedview
     id="namedview1"
     pagecolor="#505050"
     bordercolor="#eeeeee"
     borderopacity="1"
     inkscape:showpageshadow="0"
     inkscape:pageopacity="0"
     inkscape:pagecheckerboard="0"
     inkscape:deskcolor="#505050"
     inkscape:document-units="mm"
     inkscape:zoom="1.3168407"
     inkscape:cx="151.11926"
     inkscape:cy="151.49896"
     inkscape:window-width="1366"
     inkscape:window-height="740"
     inkscape:window-x="0"
     inkscape:window-y="0"
     inkscape:window-maximized="1"
     inkscape:current-layer="svg1" /><defs
     id="defs1" /><g
     id="layer1"
     transform="translate(-1951.5738,-1851.1162)"
     style="fill:#71c837;fill-opacity:1"><path
       d="m 2084.5435,2152.7713 c -69.0852,-8.6745 -123.0519,-62.351 -132.1633,-131.4527 -1.6697,-12.6633 -0.6267,-38.4113 2.0255,-50 3.0296,-13.2382 7.5595,-26.162 12.8597,-36.6892 32.1383,-63.8326 103.4055,-96.323 172.8588,-78.8056 27.89,7.0343 52.4969,21.6253 72.7455,43.1352 54.9332,58.3554 54.541,149.6591 -0.8922,207.6883 -21.8771,22.9017 -52.0954,39.3616 -82.0244,44.6789 -10.9323,1.9423 -35.2793,2.7171 -45.4096,1.4451 z m 30.9096,-83.4527 v -47.5 h 15.372 15.372 l 2.7054,-17.25 c 1.4879,-9.4875 2.9417,-18.2522 3.2306,-19.477 l 0.5253,-2.2271 -18.3526,-0.2729 -18.3527,-0.273 -0.3036,-13 c -0.41,-17.5506 0.1564,-20.7778 4.4878,-25.5721 4.6496,-5.1467 10.6911,-6.9279 23.4973,-6.9279 h 9.8185 v -16 c 0,-8.8 -0.3375,-16.0107 -0.75,-16.0239 -0.4125,-0.013 -8.6969,-0.4461 -18.4097,-0.9622 -19.8666,-1.0557 -25.9173,-0.4378 -34.8146,3.5551 -6.6262,2.9736 -15.4573,11.4247 -18.7841,17.9756 -5.1326,10.1066 -5.636,12.985 -6.201,35.4554 l -0.5406,21.5 -17.25,0.2736 -17.25,0.2736 v 19.4764 19.4764 h 17.5 17.5 v 47.5 47.5 h 20.5 20.5 z"
       style="fill:#71c837;fill-opacity:1"
       id="path1-3-1" /></g></svg>
