<?xml version="1.0" encoding="UTF-8" standalone="no"?>
<!-- Created with Inkscape (http://www.inkscape.org/) -->

<svg
   width="79.971542mm"
   height="80.043373mm"
   viewBox="0 0 302.25466 302.52614"
   version="1.1"
   id="svg1"
   xml:space="preserve"
   sodipodi:docname="ig.svg"
   inkscape:version="1.3.2 (091e20ef0f, 2023-11-25, custom)"
   xmlns:inkscape="http://www.inkscape.org/namespaces/inkscape"
   xmlns:sodipodi="http://sodipodi.sourceforge.net/DTD/sodipodi-0.dtd"
   xmlns="http://www.w3.org/2000/svg"
   xmlns:svg="http://www.w3.org/2000/svg"><sodipodi:namedview
     id="namedview1"
     pagecolor="#505050"
     bordercolor="#eeeeee"
     borderopacity="1"
     inkscape:showpageshadow="0"
     inkscape:pageopacity="0"
     inkscape:pagecheckerboard="0"
     inkscape:deskcolor="#505050"
     inkscape:document-units="mm"
     inkscape:zoom="0.95283894"
     inkscape:cx="151.12732"
     inkscape:cy="151.65207"
     inkscape:window-width="1366"
     inkscape:window-height="740"
     inkscape:window-x="0"
     inkscape:window-y="0"
     inkscape:window-maximized="1"
     inkscape:current-layer="svg1" /><defs
     id="defs1" /><g
     id="layer1"
     transform="translate(-1802.0718,-2301.2873)"
     style="fill:#71c837;fill-opacity:1"><path
       d="m 1931.9262,2602.4311 c -79.2048,-11.5343 -136.4546,-83.5003 -129.2414,-162.4632 2.4503,-26.824 10.5917,-50.1574 24.9539,-71.5186 34.1173,-50.7436 94.7098,-75.9616 154.7004,-64.3845 14.6378,2.8248 23.9638,6.0611 38.9547,13.5182 41.7091,20.7476 70.6034,58.5263 80.634,105.4271 3.0019,14.0365 3.2257,42.5204 0.4479,57 -5.7905,30.1829 -20.555,58.0432 -42.1309,79.5 -19.5565,19.4487 -43.2226,33.0587 -68.8732,39.6078 -18.523,4.7294 -41.0853,5.9869 -59.4454,3.3132 z m 83.9729,-56.1887 c 18.6244,-7.5348 31.3463,-23.7639 33.903,-43.2493 0.7368,-5.6155 0.9945,-24.6935 0.7565,-56 -0.3932,-51.7078 -0.3506,-51.2935 -6.5173,-63.483 -5.9575,-11.7759 -21.6624,-23.6038 -35.0467,-26.3949 -7.3869,-1.5404 -104.1851,-1.5162 -111.3849,0.028 -18.2952,3.9236 -34.4427,19.5112 -39.3632,37.9985 -2.0962,7.8757 -2.0961,106.8619 10e-5,114.7376 4.7377,17.8001 19.4638,32.6891 37.2386,37.6505 3.7947,1.0592 16.4059,1.3041 59.8086,1.1614 54.6447,-0.1797 55.0362,-0.1955 60.6053,-2.4486 z m -117.2421,-15.7858 c -10.2183,-3.1755 -18.8885,-11.5528 -22.8132,-22.0425 -2.0715,-5.5366 -2.1117,-6.792 -1.834,-57.2823 l 0.284,-51.6217 2.6702,-5.6965 c 3.4063,-7.2667 10.3666,-14.2271 17.6333,-17.6333 l 5.6965,-2.6702 h 53.02 53.0199 l 6.6774,3.2868 c 7.3858,3.6354 13.1939,9.4636 16.9384,16.9969 l 2.3443,4.7163 v 54 c 0,52.8643 -0.044,54.0947 -2.1116,58.5 -3.3643,7.1696 -9.7273,13.5492 -17.1684,17.2133 l -6.6748,3.2867 -51.5226,0.1937 c -42.4549,0.1596 -52.3386,-0.06 -56.1594,-1.2472 z m 73.2886,-28.3109 c 17.9849,-7.0192 31.2898,-23.77 33.9779,-42.7778 4.3442,-30.7191 -21.0483,-59.3578 -52.6297,-59.3578 -16.9298,0 -32.3312,7.8983 -42.1023,21.5912 -15.5194,21.7486 -13.2501,49.8771 5.519,68.4088 6.677,6.5925 15.863,11.9997 23.668,13.9318 7.002,1.7334 25.1728,0.6995 31.5671,-1.7962 z m -28.1518,-16.0138 c -5.8961,-1.9343 -11.0222,-5.3657 -15.7607,-10.5504 -15.9135,-17.4119 -10.1846,-44.2026 11.6407,-54.4362 8.1302,-3.8121 19.0882,-3.6987 27.8543,0.2884 7.2402,3.293 14.3201,10.2834 17.5814,17.3592 3.3487,7.2655 3.1186,20.7241 -0.4858,28.4137 -3.2641,6.9634 -9.7194,13.6034 -16.3416,16.8092 -3.8205,1.8495 -6.9152,2.4624 -13.4739,2.6686 -4.6829,0.1472 -9.6394,-0.1014 -11.0144,-0.5525 z m 67.0328,-75.6387 c 3.1601,-1.6342 5.9672,-6.0952 5.9672,-9.4831 0,-2.9353 -2.5699,-7.5853 -5.2168,-9.4393 -3.156,-2.2106 -9.9566,-1.9987 -13.0129,0.4054 -3.9366,3.0965 -5.2905,7.3541 -3.8586,12.1335 2.04,6.8088 9.5489,9.7821 16.1211,6.3835 z"
       style="fill:#71c837;fill-opacity:1"
       id="path1-2-9" /></g></svg>
