<?xml version="1.0" encoding="UTF-8" standalone="no"?>
<!-- Created with Inkscape (http://www.inkscape.org/) -->

<svg
   width="79.887985mm"
   height="79.965462mm"
   viewBox="0 0 301.93885 302.23167"
   version="1.1"
   id="svg1"
   xml:space="preserve"
   sodipodi:docname="whapp.svg"
   inkscape:version="1.3.2 (091e20ef0f, 2023-11-25, custom)"
   xmlns:inkscape="http://www.inkscape.org/namespaces/inkscape"
   xmlns:sodipodi="http://sodipodi.sourceforge.net/DTD/sodipodi-0.dtd"
   xmlns="http://www.w3.org/2000/svg"
   xmlns:svg="http://www.w3.org/2000/svg"><sodipodi:namedview
     id="namedview1"
     pagecolor="#505050"
     bordercolor="#eeeeee"
     borderopacity="1"
     inkscape:showpageshadow="0"
     inkscape:pageopacity="0"
     inkscape:pagecheckerboard="0"
     inkscape:deskcolor="#505050"
     inkscape:document-units="mm"
     inkscape:zoom="0.95383555"
     inkscape:cx="150.96942"
     inkscape:cy="151.49362"
     inkscape:window-width="1366"
     inkscape:window-height="740"
     inkscape:window-x="0"
     inkscape:window-y="0"
     inkscape:window-maximized="1"
     inkscape:current-layer="svg1" /><defs
     id="defs1" /><g
     id="layer1"
     transform="translate(-1328.1919,-2112.7912)"
     style="fill:#71c837;fill-opacity:1"><path
       d="m 1462.7301,2414.1306 c -52.288,-6.0769 -97.0958,-37.7027 -119.6413,-84.4439 -9.9018,-20.5283 -13.8961,-36.8063 -14.723,-60 -0.6353,-17.821 0.4004,-28.4256 4.2778,-43.7994 12.3609,-49.0112 50.0505,-89.5986 98.0956,-105.6376 17.0345,-5.6867 28.026,-7.4191 47.3159,-7.4577 19.564,-0.039 29.9188,1.4092 46.387,6.4886 54.9721,16.955 95.817,64.9536 104.5884,122.9061 1.6148,10.669 1.421,33.8722 -0.3763,45.0411 -7.3937,45.9479 -35.4529,86.0276 -76.179,108.8142 -26.4629,14.8062 -59.9363,21.553 -89.7451,18.0886 z m -48.1596,-59.0095 23.3792,-4.0655 6.9297,2.4997 c 15.8961,5.734 37.7986,7.3749 53.9679,4.0431 51.3518,-10.5812 84.9532,-61.6345 74.3143,-112.9117 -7.9503,-38.3186 -35.7798,-66.366 -74.6065,-75.1907 -11.2011,-2.5458 -30.7263,-2.0982 -42.5114,0.9745 -34.9415,9.1103 -60.792,34.8191 -70.1006,69.7162 -1.8543,6.9516 -2.2711,11.1413 -2.2877,23 -0.023,16.185 1.9971,26.5691 7.6184,39.167 l 2.9749,6.6671 -3.0968,22.9249 c -3.5919,26.5901 -3.6284,27.241 -1.5286,27.241 0.8624,0 12.0887,-1.8295 24.9472,-4.0656 z m 50.9846,-12.5287 c -8.2907,-1.9514 -11.8865,-3.0709 -18.1367,-5.6468 l -7.1367,-2.9411 -14.8904,2.5911 c -8.1897,1.4251 -15.5766,2.5911 -16.4153,2.5911 -1.3413,0 -1.2689,-1.9192 0.6017,-15.9458 l 2.1266,-15.9458 -3.7526,-7.6933 c -6.2573,-12.8285 -8.3284,-21.9341 -8.2825,-36.4151 0.047,-14.8289 1.5727,-21.5157 7.8719,-34.5 10.2378,-21.1029 29.0455,-36.4975 52.014,-42.575 11.0278,-2.9179 27.8548,-2.9099 39,0.019 34.4546,9.0534 58.3218,38.0233 60.1886,73.0564 1.9961,37.4617 -22.3379,71.5778 -58.1886,81.5796 -5.8131,1.6218 -30.4145,2.9053 -35,1.8261 z m 46.3576,-32.333 c 4.5349,-2.3136 13.1486,-12.4433 13.1271,-15.4376 -0.022,-3.0174 -0.6544,-3.7429 -8.2876,-9.5022 -8.8574,-6.683 -10.5646,-6.646 -17.9483,0.3881 -3.1632,3.0134 -6.542,5.479 -7.5084,5.479 -3.1334,0 -14.5516,-8.179 -22.349,-16.0088 -5.5104,-5.5333 -8.6439,-9.735 -11.3628,-15.2363 l -3.7542,-7.596 3.6128,-3.6128 c 3.0281,-3.0281 3.6073,-4.2953 3.5784,-7.8295 -0.038,-4.6208 -4.8165,-17.7895 -7.5529,-20.8132 -3.3299,-3.6794 -8.8026,-1.6755 -15.1654,5.553 -7.276,8.266 -7.9169,16.8964 -2.2682,30.5436 5.0668,12.241 10.8757,20.906 20.4939,30.5701 11.9615,12.0185 24.9516,19.6187 40.8596,23.9057 7.1292,1.9212 10.1322,1.8379 14.525,-0.4031 z"
       style="fill:#71c837;fill-opacity:1"
       id="path1-6-2" /></g></svg>
